<?xml version="1.0" encoding="utf-8"?>
<!-- Generator: Adobe Illustrator 25.3.1, SVG Export Plug-In . SVG Version: 6.00 Build 0)  -->
<svg version="1.1" id="Layer_1" xmlns="http://www.w3.org/2000/svg" xmlns:xlink="http://www.w3.org/1999/xlink" x="0px" y="0px"
	 viewBox="0 0 340.4 100.3" style="enable-background:new 0 0 340.4 100.3;" xml:space="preserve">
<g>
	<path d="M82.7,9.4l-0.3,0.2v0.1c-1.1,0.3-2.7,0.8-4.7,1.5c-1.4,0.5-2.9,1.4-4.7,2.5c0.7,1.1,1.4,1.9,2.1,2.5c1.8,3.5,2.7,6.1,2.7,8
		c0,2.8-0.9,5.5-2.8,8.1c-1.9,2.7-4.2,4.5-6.8,5.5l-3,1.2c2.2,1.1,4.5,3,6.9,5.8c0.9,2.5,1.3,4.3,1.3,5.2c0,0.9-0.2,2.5-0.7,4.8
		c-0.3,1.3-0.9,2.7-1.8,4.3c-3.7,5.9-8.4,9.6-14.2,11.1c-2,0.5-3.8,0.7-5.3,0.7c-2.5,0-4.9-0.7-6.9-2c-2.4-1.6-3.6-3.5-3.6-5.9
		c0-1.6,1-3.4,3.1-5.3c0.7-0.2,1.6-0.5,2.6-0.9l1.3,0.3c0,0.2,0.2,0.3,0.5,0.5v0.2c0,0.2,0.1,0.3,0.3,0.4c-0.1,0.3-0.3,0.6-0.5,1.2
		c-1,2.2-1.6,3.8-1.6,4.8c0,0.7,0.2,1.4,0.6,2c0.2,0.9,0.9,1.7,2.1,2.3c1,0.5,2.1,0.7,3.3,0.7c4,0,7.6-2,10.7-6.1
		c2.9-3.8,4.3-7.8,4.3-12c0-1.2-0.5-3.1-1.4-5.4c-0.9-0.8-1.9-1.7-2.8-2.7L59,41.2c-0.6,0-1.4-0.2-2.3-0.3C56.5,41,56.4,41,56.3,41
		c-0.3,0-0.5-0.1-0.6-0.4c-0.1,0-0.2-0.3-0.3-0.9c-0.1,0-0.1,0-0.1-0.1c0,0,0-0.1,0.1-0.2v0.1v-0.1h0.1h0.1l0.2-0.5h0.2
		c0.3,0,0.5-0.1,0.8-0.3c1.2,0,2.9-0.3,5.2-0.8c5-2.3,8.3-6.1,9.8-11.4c0.1-0.9,0.3-2.2,0.6-3.9c-0.5-1.3-0.8-2.6-0.9-3.8
		c-0.5-0.7-1-1.6-1.6-2.8c-1.4,1.4-3.5,3.7-6.2,6.9c-2.2,3.1-5.1,7.8-8.5,13.9c-3.8,6.7-6.6,11.4-8.4,14c-3.4,5-6.9,9.1-10.6,12.2
		c-2.1,1.9-5.4,3.9-10,6.3c-0.9,0.2-2.2,0.5-3.8,1h-0.7c-0.3,0-0.9,0.1-1.5,0.2c-0.7,0.1-1.2,0.2-1.5,0.2c-1.5,0-3.8-0.5-6.9-1.6
		c-2.3-0.7-3.5-2.5-3.5-5.4c0-2.6,1.3-4,3.8-4.1c0.6,0.3,1.5,0.7,2.7,1.2l1,2.7c-0.1,0.9-0.5,1.9-1.1,2.7c-1.1,0.5-1.9,0.8-2.4,0.8
		l0.1-0.2c0.6,0.8,1.4,1.2,2.3,1.4c0.7,0.6,1.6,0.9,2.7,0.9c0.5,0,0.9,0,1.4-0.1c0.5,0,0.9,0.1,1.4,0.1c5.4,0,11-4.6,16.8-13.9
		L48.8,36C55.4,25.2,61.5,18,67.1,14.2c-0.7,0-1.2-0.4-1.4-1.2c-1.3-0.6-2.7-1.3-3.9-2.1c-0.9-0.1-2.2-0.3-3.9-0.7
		c-1.8-0.4-3.1-0.6-4.1-0.6c-0.3,0-0.8,0-1.5,0.1c-0.8,0.1-1.3,0.2-1.6,0.3c-0.7,0-1.8,0-3.2,0.1c-2.1,0.3-5.6,1.4-10.5,3.6
		c-6.1,2.6-11.1,6.5-15.1,11.6c-4.2,5.5-6.3,11.4-6.3,17.7c0,2.4,0.9,4.8,2.8,7.2c2,2.6,4.2,3.9,6.5,3.9c3.9,0,7-1.2,9.2-3.7
		c0.5-0.6,1.2-1.6,2-3.1c0.9-1.5,1.4-2.6,1.5-3.2c0.1-0.9,0.3-2.2,0.7-4c0-0.3,0-0.5,0-0.8c0,0.1,0.1-1,0.3-3.4
		c-0.2-0.9-0.3-1.6-0.3-2.3c0-0.4,0.1-0.8,0.2-1.3L38.5,32c0-0.2,0.1-0.4,0.3-0.6l0.5-0.1l0.1,0.3l0.3-0.2l0.3,0.3L39.8,32l0.2,0.3
		v0.3c0,0.4,0.1,1.1,0.3,1.9c0.2,0.9,0.3,1.5,0.3,1.9c0,2.8-0.5,5.8-1.4,8.7c-0.4,1.4-1.5,3.2-3.2,5.5c-1.3,1.8-3,3.3-5.2,4.4
		c-2.2,1.1-4.3,1.6-6.5,1.6c-3.6,0-6.7-1.3-9.3-3.9s-3.9-5.7-3.9-9.2c0-4.9,1.4-9.7,4.2-14.4c2.5-4.2,5.9-8,10.1-11.3
		c0.4-0.3,1.9-1.3,4.5-3c1-0.7,3.1-1.7,6.1-2.9c3-1.3,5.1-2.1,6.3-2.4c5-1.2,9.2-1.7,12.7-1.7c-0.3,0,0.8,0.2,3.4,0.5
		c0.9,0,2.1,0.2,3.8,0.3c2.3,0.9,5.1,2,8.4,3.2c2.4-1,5.7-2.2,10-3.4c0.1,0.1,0.3,0.2,0.5,0.2c0.2,0,0.3-0.1,0.5-0.3
		c0.3,0.3,0.6,0.4,1,0.2l-0.1,0.5l0.2,0.5L82.7,9.4z"/>
	<path d="M115,48.6c-0.2,0.5-1.5,2-4,4.6c-7,7.2-13,12.1-17.8,14.6c-1.6,0.9-3.3,1.5-5,1.9c-1.8,0.4-3.5,0.8-5.3,1.1
		c-2.8-0.6-4.8-1.4-5.8-2.4c-1.3-1.2-1.9-3.2-1.9-5.9c0-2.2,1.1-5,3.4-8.5c2-3.1,4-5.5,6-7.1c1.6-1.1,3.8-2.8,6.7-5
		c0.8-0.4,2.1-0.9,3.8-1.5c0.1,0,1.5-0.3,4.2-0.8l3,0.8c0.3,0.6,0.7,1,1.2,1.2c0.1,0.6,0.3,1.1,0.5,1.6c-0.1,0.5-0.3,1.1-0.6,2
		c-0.3,0.9-1.2,1.9-2.7,3.2c-2,1.7-4.9,3.3-8.7,4.9c-1.4,0.5-4.5,1.6-9.4,3.2c-1.2,2.5-1.8,4.8-1.8,7c0,1,0.3,1.9,1,2.5
		c0.3,1.4,1.6,2.1,3.8,2.1c5.7,0,15-6.5,28-19.5l0.8-0.3l0.5,0.1v0.3H115z M99.4,43c-0.4-0.4-0.6-0.8-0.6-1.3
		c-0.5,0.1-0.8,0-1.1-0.4c-2.4,0.3-5,2-7.8,5c-0.4,0.5-2.4,2.9-6,7.4C93.2,51.4,98.4,47.9,99.4,43z"/>
	<path d="M145.1,48.3c-0.2,0.6-0.4,0.8-0.6,0.8c-3.8,2.6-7.8,3.9-12,3.9c-0.7,0-1.5-0.2-2.3-0.6c-1.7-0.9-2.8-1.9-3.3-3
		c-0.3-0.8-0.5-2.3-0.4-4.4C120,49,114,55.3,108.6,64c-0.8,1.2-1.9,2.9-3.3,5.2l-6.1,0.5l18.3-29l6-0.5L117,50.5
		c0.7-0.6,1.7-1.4,3-2.7c2.2-1.8,5.6-4.5,10.1-8.1l0.5,0.1c-0.4,0,0.7-0.2,3.4-0.4l0.6,0.2l0.2,0.4c-0.3,0.3-0.5,0.6-0.5,0.9
		c-1.6,2.7-2.5,5.2-2.5,7.6c-0.2,0.2-0.3,0.3-0.3,0.5c0,0.2,0.1,0.3,0.3,0.5c0.2,1,1.1,1.6,2.7,1.6c1,0,2.7-0.3,4.9-1
		c2.2-0.7,3.6-1.3,4.2-1.9l1-0.3l0.1,0.3l0.3-0.2L145.1,48.3z"/>
	<path d="M184.3,49.4l-0.2,0.2l0.1,0.2c-0.4,0.4-1,1.1-1.9,2.1c-7.8,9.2-14.7,14.9-20.6,17.1c-1.2,0.3-2.9,0.8-5.2,1.5
		c-3.5,5.7-6.7,10-9.6,13c-2,2-4.5,4.1-7.3,6.1c-1.8,1.3-3.9,2.5-6.3,3.5c-1.5,0.7-3.4,1.3-5.8,1.7c-2.4,0.5-4.3,0.7-5.8,0.7
		c-1.4,0-3-0.3-4.7-0.8c-1.5-0.5-3-1-4.5-1.5c-0.9-1.1-2-2.2-3.1-3.2c-0.5-1.7-0.8-3.1-1.1-4.4c0.1-0.3,0.3-1.4,0.6-3.2
		c0.7-0.8,1.2-1.6,1.5-2.4c1.8-1.4,3.9-2.5,6.3-3.2c0.1-0.2,0.3-0.3,0.5-0.3c0.2,0,0.4,0.1,0.6,0.3c0.3-0.1,0.6-0.2,0.8-0.2
		c0.6,0,1.1,0.3,1.5,0.8l-0.1,0.1l0.1,0.3l0.2,0.1l-0.2,0.1c0,0.3,0,0.4-0.1,0.3v0.2c-1.4,0.3-2.6,0.7-3.8,1.2
		c-0.5,0.9-1,1.6-1.7,2.3c-0.1,0.7-0.3,1.9-0.7,3.4l1,4.1c0.6,0.8,1.7,1.8,3,3c0.4,0.3,1.2,0.5,2.6,0.9c1.3,0.3,2.3,0.5,2.8,0.5
		c0.8,0,2.9-0.5,6.3-1.4c0.7-0.7,1.6-1.2,2.7-1.4c1.5-1.3,3.9-3.2,7-5.7c0.7-1.3,1.7-2.4,3-3.1c1.9-2.5,4.7-6.3,8.3-11.4
		c0.7-1.2,1.9-3.1,3.5-5.6c-2.6,1.7-4.6,2.9-5.8,3.5c-1.9,0.9-4,1.5-6.5,1.9c-0.6-0.1-1.4-0.3-2.5-0.6c-0.6-0.2-1.2-0.8-1.9-1.9
		c-0.6-1-1-2.6-1-4.9c0-0.3,0.2-1.2,0.5-2.5c0.7-2.5,1.5-4.5,2.5-6c3.9-5.9,8-10,12.2-12.4c2.5-1.4,5.6-2.3,9.4-2.9
		c0.5,0.1,1.4,0.3,2.7,0.5c0.4,0.5,0.9,0.8,1.5,1.1l1.3,2.7c-0.1,0.3-0.1,0.5-0.1,0.8c0,0.3,0.1,0.6,0.2,0.8l3-4.7l6.4-0.5
		l-18.2,28.2c4.7,0,11.3-4.2,19.5-12.5c1.3-1.6,3.3-3.9,6.1-6.9l0.6-0.3l0.1,0.3l0.3-0.2l0.1,0.2l-0.1,0.1l0.1,0.1H184.3z M163.5,45
		l-0.3-1c-0.2-0.2-0.3-0.4-0.3-0.6c0-0.1,0-0.3,0.1-0.4c-0.6-0.5-1-0.9-1.3-1.4c-0.4-0.1-0.9-0.2-1.4-0.3c-1.8,0.3-3.1,0.7-4.1,1.2
		c-3,1.6-6.1,4.7-9.3,9.5c-3.3,4.9-4.9,9-4.9,12.3l-0.2,0.1c0,1.6,0.5,2.7,1.5,3.4c0.2,0.5,0.5,0.7,0.9,0.7c0.2,0,0.4,0,0.6-0.1
		c2.8,0.2,6.4-2.2,10.6-7.1c3.7-4.3,6.1-8.1,7.2-11.4C162.8,48.7,163.1,47.1,163.5,45z"/>
	<path d="M223.4,49l-0.2,0.6c-1.2,1.5-3,3.7-5.4,6.6c-2.6,3.1-5.6,6.1-9.1,8.9c-4.5,3.7-8.1,5.5-10.7,5.5c-1.5,0-2.8-0.4-3.8-1.2
		c-1-0.8-1.5-1.9-1.5-3.4c0-1.1,0.1-2.1,0.3-2.9l0.1-0.2c-3.1,2.8-5.1,4.5-6,5c-1.9,1.2-4.3,2.1-7.4,2.7c-0.9-0.2-2.1-0.6-3.6-1.1
		c-1.6-0.9-2.3-3-2.3-6.1c0-3.4,1.8-7.6,5.5-12.4c3.4-4.4,6.7-7.5,10.2-9.4c1.6-0.9,4.2-1.7,7.6-2.3c1.5,0.3,2.9,0.7,4.3,1.2
		c0.6,0.9,1.3,1.6,2.1,2.1c0,0.6,0.2,1.1,0.5,1.7l2.6-3.8l6.1-0.5l-12.9,21c-1.8,2.8-2.7,4.9-2.7,6.1c-0.1,0.1-0.1,0.3-0.1,0.5
		c0,0.4,0.2,0.6,0.5,0.6c0.3,0.3,0.8,0.5,1.2,0.5c2,0,5.1-1.7,9.1-5.1c2.8-2.3,5.4-4.8,7.9-7.6c2-2.3,4.1-4.7,6.2-7.1
		c0.2-0.1,0.5-0.3,0.9-0.6v0.2l0.3-0.1c-0.1,0-0.2,0.1-0.2,0.3c0,0.1,0,0.1,0.1,0.1C223.1,49.1,223.2,49.2,223.4,49z M201.1,45.2
		c-0.2-0.5-0.3-0.8-0.3-1c-0.1-0.2-0.1-0.3-0.1-0.5c0-0.1,0-0.2,0.1-0.3c-0.7-0.4-1.1-1-1.4-1.7c-0.6,0-1.2-0.1-1.7-0.4
		c-0.9,0.1-2.2,0.5-3.8,1c-3.1,1.6-6.3,4.8-9.4,9.4c-3.1,4.6-4.7,8.6-4.9,12.1l-0.1,0.2v0.2c-0.1,0.7,0.2,1.5,0.8,2.4
		c0.6,0.9,1.3,1.3,2,1.3c3.1,0,6.6-2.3,10.6-6.8c3.5-4,5.9-7.7,7.1-11.2C200.4,49.1,200.7,47.5,201.1,45.2z"/>
	<path d="M262.3,48.5c-0.6,0.2-0.6,0.4-0.3,0.6c-0.3,0.5-0.5,0.8-0.6,0.7c-8.7,11.6-15.3,18.1-19.9,19.7c-0.6,0.2-2.3,0.6-4.9,1.1
		c-3.8-0.6-5.6-2.3-5.6-5.2c0-2.4,1.8-6.1,5.4-11.2c2.6-3.7,5.3-7.3,7.9-10.9l-0.1-0.2c0-0.3,0.1-0.5,0.3-0.7
		c-0.3-0.2-0.4-0.5-0.4-0.8l-1.7-0.5c-4.9,0.5-10,3.6-15.1,9.3c-2.2,2.5-5.9,7.4-10.9,14.9c-1.1,1.6-1.9,2.9-2.4,3.8l-6.5,0.5l19-29
		l6.3-0.5l-5.2,7.4c3.3-3,6.9-5.4,10.8-7.3c0.5-0.2,2.1-0.5,5-1l2.5,0.6c0.8,0.9,1.4,1.5,1.9,1.9c0.2,0.9,0.4,1.7,0.7,2.3
		c-0.3,1.8-0.7,3.1-1.2,3.9c-0.3,0.6-0.8,1.4-1.4,2.5c-0.9,1.3-2.4,3.2-4.2,5.8c-1.3,1.8-2.5,3.6-3.8,5.4c-1.7,2.6-2.5,4.5-2.3,5.5
		c-0.2,0.2-0.3,0.4-0.3,0.6c0,0.5,0.3,0.7,0.8,0.8c0.2,0.2,0.4,0.3,0.8,0.3l0.5-0.1c0.7,0.2,1.5,0.1,2.3-0.5
		c1.4-0.7,3.4-1.9,6.1-3.6c2-1.5,4.7-4.2,8.1-8c3.2-3.6,5.5-6.4,6.9-8.5v-0.2l0.3-0.1c0.3,0,0.6-0.1,0.8-0.3V48h0.3L262.3,48.5z"/>
	<path d="M296.7,48.1c-0.2,0.3-0.3,0.4-0.3,0.5h0.1h0.1c-1.9,3.2-4.6,6.7-8.2,10.6c-3.6,3.9-6.9,6.9-9.8,8.9c-1.7,1.2-3.1,1.9-4,2.1
		c-0.6,0.1-1.5,0.3-2.7,0.6c-1.5,0-3.2-0.4-5.2-1.3c-1.6-0.8-3.2-1.6-4.9-2.4c-0.7-0.2-1.7-0.4-2.9-0.8l-0.5,0.2l-0.3-0.1
		c-0.1,0-0.3,0.1-0.5,0.3c-1.2,0.8-2.8,2-5,3.8c-0.2,0-0.2,0-0.1,0.1c-0.2-0.1-0.5-0.3-0.8-0.6c0.1-0.4,0.4-1.1,0.8-1.9
		c1.2-0.8,2.9-2.1,5.1-3.8c0.7-0.6,1.8-1.6,3.3-2.9l18-14.9l-0.6-0.1c-0.2,0-0.5,0.1-0.7,0.1c-0.7,0-1.3-0.2-1.8-0.5
		c-1.1,0-2.7-0.6-4.9-1.7l-0.3,0.1c-0.5,0-1-0.2-1.5-0.5c-1.7,0.5-3,1.2-3.9,2.1c-0.3,0.3-1.3,1.5-2.8,3.6c-0.1,0.6-0.4,0.9-1,0.7
		c-0.1,0.1-0.2,0.1-0.3,0.1v-0.2c0,0.1-0.1,0.1-0.3,0.1c-0.1,0-0.1-0.2,0-0.5h-0.1c0.1-0.2,0.1-0.4,0.1-0.6c0.5-0.8,1.3-2,2.4-3.5
		c1.6-1.9,2.6-3,3.1-3.4c1-0.9,2.4-1.6,4.1-2.3h0.4c0.7,0,1.4-0.1,2.2-0.5c1.8,0.6,4.5,1.4,8.2,2.7c0.1,0.2,0.3,0.3,0.6,0.3
		c0.1,0,0.3-0.1,0.5-0.2l0.5,0.1c1.2,0.1,3.1-1.1,5.7-3.7c0.1-0.1,0.6-0.3,1.6-0.8l0.3,0.3l0.1,0.6l-0.5,1.2c0,0.1-1.1,1-3.2,2.7
		l-24.6,20.1c1.1,0.4,2.4,0.6,3.8,0.6c1.1,0.6,2.8,1.3,4.9,2.1c2.4,0.8,4.1,1.2,5.2,1.2c3,0,8.8-5.5,17.5-16.4
		c0.4-0.6,1.1-1.5,2.1-2.7c0,0.1,0.1,0.1,0.2,0.1l0.1-0.1v0.1l0.3-0.1c-0.1,0.1-0.1,0.2-0.1,0.3v0.1L296.7,48.1z"/>
	<path d="M335.4,49l-0.2,0.6c-1.2,1.5-3,3.7-5.4,6.6c-2.6,3.1-5.6,6.1-9.1,8.9c-4.5,3.7-8.1,5.5-10.7,5.5c-1.5,0-2.8-0.4-3.8-1.2
		c-1-0.8-1.5-1.9-1.5-3.4c0-1.1,0.1-2.1,0.3-2.9l0.1-0.2c-3.1,2.8-5.1,4.5-6,5c-1.9,1.2-4.3,2.1-7.4,2.7c-0.9-0.2-2.1-0.6-3.6-1.1
		c-1.6-0.9-2.3-3-2.3-6.1c0-3.4,1.8-7.6,5.5-12.4c3.4-4.4,6.7-7.5,10.2-9.4c1.6-0.9,4.2-1.7,7.6-2.3c1.5,0.3,2.9,0.7,4.3,1.2
		c0.6,0.9,1.3,1.6,2.1,2.1c0,0.6,0.2,1.1,0.5,1.7l2.6-3.8l6.1-0.5l-12.9,21c-1.8,2.8-2.7,4.9-2.7,6.1c-0.1,0.1-0.1,0.3-0.1,0.5
		c0,0.4,0.2,0.6,0.5,0.6c0.3,0.3,0.8,0.5,1.2,0.5c2,0,5.1-1.7,9.1-5.1c2.8-2.3,5.4-4.8,7.9-7.6c2-2.3,4.1-4.7,6.2-7.1
		c0.2-0.1,0.5-0.3,0.9-0.6v0.2l0.3-0.1c-0.1,0-0.2,0.1-0.2,0.3c0,0.1,0,0.1,0.1,0.1C335,49.1,335.2,49.2,335.4,49z M313,45.2
		c-0.2-0.5-0.3-0.8-0.3-1c-0.1-0.2-0.1-0.3-0.1-0.5c0-0.1,0-0.2,0.1-0.3c-0.7-0.4-1.1-1-1.4-1.7c-0.6,0-1.2-0.1-1.7-0.4
		c-0.9,0.1-2.2,0.5-3.8,1c-3.1,1.6-6.3,4.8-9.4,9.4c-3.1,4.6-4.7,8.6-4.9,12.1l-0.1,0.2v0.2c-0.1,0.7,0.2,1.5,0.8,2.4
		c0.6,0.9,1.3,1.3,2,1.3c3.1,0,6.6-2.3,10.6-6.8c3.5-4,5.9-7.7,7.1-11.2C312.3,49.1,312.7,47.5,313,45.2z"/>
</g>
</svg>
